<svg id="レイヤー_1" data-name="レイヤー 1" xmlns="http://www.w3.org/2000/svg" xmlns:xlink="http://www.w3.org/1999/xlink" viewBox="0 0 2504.07 878.48"><defs><style>.cls-1{fill:url(#新規グラデーションスウォッチ_1);}.cls-2{fill:url(#新規グラデーションスウォッチ_1-2);}.cls-3{fill:url(#新規グラデーションスウォッチ_1-3);}.cls-4{font-size:43px;fill:#fff;font-family:HeiseiMaruGoStd-W4-90ms-RKSJ-H, Heisei Maru Gothic Std;}.cls-5{letter-spacing:0.25em;}</style><linearGradient id="新規グラデーションスウォッチ_1" x1="2115.58" y1="436.79" x2="2115.58" y2="878.48" gradientUnits="userSpaceOnUse"><stop offset="0" stop-color="#313770"/><stop offset="1"/></linearGradient><linearGradient id="新規グラデーションスウォッチ_1-2" x1="389.52" y1="436.79" x2="389.52" y2="878.48" xlink:href="#新規グラデーションスウォッチ_1"/><linearGradient id="新規グラデーションスウォッチ_1-3" x1="1252.57" y1="436.69" x2="1252.57" y2="878.38" xlink:href="#新規グラデーションスウォッチ_1"/></defs><title>brand</title><rect class="cls-1" x="1727.1" y="436.79" width="776.97" height="441.69"/><rect class="cls-2" x="1" y="436.79" width="777.04" height="441.69"/><image width="1920" height="1080" transform="translate(0 0) scale(0.41 0.41)" xlink:href="../../RiS/images/brand.png"/><image width="1920" height="1080" transform="translate(1727) scale(0.4 0.4)" xlink:href="../../RiS/images/looking.png"/><image width="1920" height="1080" transform="translate(864 0) scale(0.4 0.4)" xlink:href="../../RiS/images/shine.png"/><rect class="cls-3" x="864.05" y="436.69" width="777.04" height="441.69"/><text class="cls-4" transform="translate(1145.07 594.49)">ブランドを<tspan x="-238.97" y="75.25">ショートムービ</tspan><tspan class="cls-5" x="62.03" y="75.25">ー</tspan><tspan x="115.78" y="75.25">(</tspan><tspan class="cls-5" x="132.68" y="75.25">1</tspan><tspan x="168.32" y="75.25">分以内の動</tspan><tspan class="cls-5" x="383.32" y="75.25">画</tspan><tspan x="437.07" y="75.25">)</tspan><tspan x="43" y="150.5">で表現</tspan></text><text class="cls-4" transform="translate(86.82 632.22)">伝えたい魅力<tspan class="cls-5" x="258" y="0">を1</tspan><tspan x="347.4" y="0">つだけに絞る</tspan><tspan x="1.7" y="75.25">それをあなたのブランドとなる</tspan></text><text class="cls-4" transform="translate(1922.12 632.23)">ショートムービーを<tspan x="-53.06" y="75.25">WE</tspan><tspan class="cls-5" x="14.15" y="75.25">B</tspan><tspan x="53.06" y="75.25">サイトトップに配置</tspan></text></svg>